HIERARCHY
ROOT Hips
{
  OFFSET 279.157 85.6768 304.565
  CHANNELS 6 Xposition Yposition Zposition Zrotation Xrotation Yrotation
  JOINT LeftUpLeg
  {
    OFFSET 8.64259 1.95398 -2.38835
    CHANNELS 3 Zrotation Xrotation Yrotation
    JOINT LeftLeg
    {
      OFFSET 43.7702 0 0
      CHANNELS 3 Zrotation Xrotation Yrotation
      JOINT LeftFoot
      {
        OFFSET 40.6238 0 0
        CHANNELS 3 Zrotation Xrotation Yrotation
        JOINT LeftToeBase
        {
          OFFSET 12.7242 0 0
          CHANNELS 3 Zrotation Xrotation Yrotation
          End Site
          {
            OFFSET 0 0 0
          }
        }
      }
    }
  }
  JOINT RightUpLeg
  {
    OFFSET -8.2249 1.95398 -2.59336
    CHANNELS 3 Zrotation Xrotation Yrotation
    JOINT RightLeg
    {
      OFFSET 43.5653 0 0
      CHANNELS 3 Zrotation Xrotation Yrotation
      JOINT RightFoot
      {
        OFFSET 40.6238 0 0
        CHANNELS 3 Zrotation Xrotation Yrotation
        JOINT RightToeBase
        {
          OFFSET 12.7242 0 0
          CHANNELS 3 Zrotation Xrotation Yrotation
          End Site
          {
            OFFSET 0 0 0
          }
        }
      }
    }
  }
  JOINT Spine
  {
    OFFSET 0.165834 0.87714 6.61349
    CHANNELS 3 Zrotation Xrotation Yrotation
    JOINT Spine1
    {
      OFFSET 7.38963 1.71661e-005 0
      CHANNELS 3 Zrotation Xrotation Yrotation
      JOINT Spine2
      {
        OFFSET 11.9445 1.14441e-005 0
        CHANNELS 3 Zrotation Xrotation Yrotation
        JOINT Spine3
        {
          OFFSET 14.7254 4.19617e-005 0
          CHANNELS 3 Zrotation Xrotation Yrotation
          JOINT Spine4
          {
            OFFSET 10.9679 0 0
            CHANNELS 3 Zrotation Xrotation Yrotation
            JOINT RightShoulder
            {
              OFFSET 2.46616 -1.6653 3.69651
              CHANNELS 3 Zrotation Xrotation Yrotation
              JOINT RightArm
              {
                OFFSET 13.0012 0 0
                CHANNELS 3 Zrotation Xrotation Yrotation
                JOINT RightForeArm
                {
                  OFFSET 28.7848 1.52588e-005 0
                  CHANNELS 3 Zrotation Xrotation Yrotation
                  JOINT RightHand
                  {
                    OFFSET 26.5688 1.52588e-005 0
                    CHANNELS 3 Zrotation Xrotation Yrotation
                    End Site
                    {
                      OFFSET 0 0 0
                    }
                  }
                }
              }
            }
            JOINT LeftShoulder
            {
              OFFSET 2.38034 -1.29275 -3.7523
              CHANNELS 3 Zrotation Xrotation Yrotation
              JOINT LeftArm
              {
                OFFSET 16.3182 6.10351e-005 0
                CHANNELS 3 Zrotation Xrotation Yrotation
                JOINT LeftForeArm
                {
                  OFFSET 27.0901 0 0
                  CHANNELS 3 Zrotation Xrotation Yrotation
                  JOINT LeftHand
                  {
                    OFFSET 24.5451 1.52588e-005 0
                    CHANNELS 3 Zrotation Xrotation Yrotation
                    End Site
                    {
                      OFFSET 0 0 0
                    }
                  }
                }
              }
            }
            JOINT Neck
            {
              OFFSET 5.0226 -0.0266342 0
              CHANNELS 3 Zrotation Xrotation Yrotation
              JOINT Head
              {
                OFFSET 6.69364 2.86102e-005 0
                CHANNELS 3 Zrotation Xrotation Yrotation
                End Site
                {
                  OFFSET 0 0 0
                }
              }
            }
          }
        }
      }
    }
  }
}
MOTION
Frames:	10
Frame Time:	0.0416667
-145.277 101.057 -139.964 -97.9071 40.0457 -83.9316 -171.699 1.35364 96.6487 -15.9366 17.0414 0.762489 65.0614 4.72266 -0.201889 28.3056 -0.846019 2.52841 173.91 0.320108 88.6427 -18.8901 -9.90264 -0.955942 67.7879 -3.86936 -1.018 23.6996 0.535523 6.89465 0.326625 7.9327 -90.3505 11.0096 0.487871 -0.744059 -0.661481 0.454642 -0.76481 -23.1963 0.688934 -0.563039 -3.18364 0.688943 -0.56304 89.5647 -31.3576 -107.095 35.5245 -5.14114 -6.3989 -4.73355 -26.6255 -25.7788 -30.3025 -0.52883 -8.95954 -90.461 -55.0658 79.1124 -26.2104 8.26169 3.7256 0.93195 5.98923 -9.48374 -0.341711 -0.130992 -6.65284 11.6299 -1.1571 -0.0147851 -3.29322 -1.14503 1.87138 
-146.438 101.143 -139.468 -98.4882 40.3183 -83.837 -171.783 0.00301421 95.8142 -15.2842 16.3039 0.59539 65.5685 5.02222 -0.325002 28.3073 -0.898366 2.75877 173.311 -0.662345 87.5166 -18.2243 -10.9106 -1.16351 67.4444 -3.81426 -1.01358 24.5574 0.316594 6.76828 0.321595 7.95782 -90.2767 10.9593 0.512153 -0.599257 -0.711689 0.485271 -0.621222 -23.247 0.668554 -0.417632 -3.23438 0.668555 -0.417631 88.9047 -31.6038 -108.275 36.4054 -6.49039 -5.52504 -1.0005 -22.0577 -20.0067 -25.4402 -0.203873 -9.73083 -90.3138 -54.7988 79.267 -23.9624 9.19371 -0.702903 1.58625 8.35727 -11.8532 4.68801 -0.268336 -7.28035 11.019 -1.30444 0.0652299 -3.57899 -1.30828 1.50786 
-147.277 101.16 -139.122 -98.7634 40.5989 -83.6969 -171.813 -0.517413 95.3743 -15.4417 15.7586 0.476477 66.0915 5.25992 -0.374932 27.2229 -1.24208 1.66873 173.162 -1.30316 87.0066 -17.6348 -11.265 -1.46973 67.2212 -3.8019 -0.924941 24.7737 0.268137 6.69328 0.310529 7.98549 -90.2541 10.9039 0.500628 -0.55264 -0.767062 0.47583 -0.574147 -23.3025 0.643576 -0.376628 -3.28984 0.643571 -0.376631 88.1611 -32.1503 -109.479 36.9389 -6.52654 -4.61583 1.59631 -27.9509 -14.6869 -22.3043 -0.505918 -10.4916 -90.2494 -55.038 79.4059 -21.1878 10.2007 -5.34381 2.31981 8.27922 -15.2739 5.21719 -0.381526 -8.7365 11.0863 -1.16534 0.663074 -4.00928 -1.31217 1.09389 
-147.908 101.165 -138.855 -98.8561 40.7751 -83.6654 -171.893 -0.814044 94.9791 -15.5872 15.5652 0.396537 66.4004 5.47611 -0.116665 27.1382 -1.28519 1.65618 173.108 -1.5737 86.6567 -17.415 -11.4129 -1.72458 67.0445 -3.7607 -0.89144 25.1091 0.192371 6.57828 0.292235 7.99479 -90.1997 10.8852 0.489488 -0.443185 -0.785729 0.469531 -0.464308 -23.3213 0.600053 -0.275582 -3.30869 0.600064 -0.275587 87.8527 -32.3998 -109.961 38.3334 -6.70942 -3.44725 3.35268 -29.3628 -11.8745 -19.8702 -0.819155 -9.35651 -90.0615 -54.4828 79.5623 -20.0702 9.29732 -9.48374 3.83897 7.9684 -18.2491 6.50315 -0.530976 -10.0355 10.9347 -1.09929 0.63856 -3.71109 -1.23182 0.667093 
-148.431 101.164 -138.571 -98.9973 41.0873 -83.3559 -171.88 -0.943959 94.8367 -15.9428 15.2734 0.344963 66.8016 5.67362 0.0675918 27.0057 -1.35778 1.65257 172.937 -1.92419 86.4283 -16.9248 -11.9387 -1.7502 66.7671 -3.78333 -0.831798 25.4494 0.115272 6.45839 0.248623 7.96508 -90.1865 10.9443 0.408776 -0.409758 -0.726651 0.390325 -0.427353 -23.2621 0.513023 -0.267956 -3.24941 0.513003 -0.26797 88.1116 -32.8387 -109.294 39.097 -7.09657 -1.99388 4.70407 -29.1056 -11.0732 -19.9865 -0.811822 -9.30842 -90.0015 -54.5137 79.654 -19.1908 7.64612 -11.5961 6.19305 9.15008 -22.5462 7.92193 -0.622183 -10.267 10.0225 -0.614218 0.62547 -3.01596 -0.748256 0.844272 
-149.011 101.147 -138.423 -99.0147 41.6973 -83.4882 -172.06 -1.26859 94.2809 -16.0271 14.2198 0.282193 67.164 5.83456 -0.0447688 26.658 -1.52434 1.54899 172.877 -1.81601 85.9782 -17.1825 -12.2459 -2.04639 66.8688 -3.84832 -0.517786 25.7345 0.0404888 6.42096 0.192131 7.96459 -90.168 10.9452 0.304696 -0.363186 -0.725788 0.288427 -0.37624 -23.261 0.399745 -0.254822 -3.24836 0.399755 -0.254822 88.0724 -33.1992 -109.223 39.3824 -6.60701 -0.763926 3.33536 -29.0664 -12.4751 -20.5285 -0.847679 -8.91312 -90.0905 -54.1894 79.4627 -19.4257 6.46796 -12.9076 7.98628 9.53087 -25.9536 7.14466 -0.668129 -11.2954 10.3387 -0.348637 1.05328 -3.79473 -0.592261 0.685497 
-149.452 101.131 -138.372 -99.1041 42.4179 -83.3048 -171.933 -1.47543 94.1959 -16.222 13.5378 0.12154 67.5174 6.05963 -0.0407462 26.5086 -1.56163 1.37174 172.8 -1.83934 85.7841 -17.1697 -13.1275 -2.13722 66.7155 -3.84034 -0.714087 26.1425 -0.0762227 6.42907 0.124633 7.94519 -90.1351 10.9838 0.185576 -0.286574 -0.687187 0.172792 -0.294471 -23.2223 0.263105 -0.217551 -3.20965 0.263127 -0.217552 88.1641 -33.0985 -109.092 39.8986 -7.02648 0.00139865 2.41996 -26.9982 -13.8158 -22.067 -0.529913 -10.0605 -89.9853 -53.8608 79.5475 -19.4496 5.86213 -13.0807 9.48 10.8281 -28.1475 6.8648 -0.730483 -12.2832 10.2465 0.0293477 0.813094 -3.91323 -0.17391 1.05031 
-149.803 101.114 -138.33 -99.3653 43.4071 -83.1415 -172.041 -1.91008 93.8201 -16.2371 12.057 0.120058 67.8386 6.25156 -0.306919 26.3297 -1.60697 1.16411 172.66 -1.80762 85.416 -17.2854 -14.2896 -2.29314 66.776 -3.88184 -0.627245 26.0948 -0.0467412 6.32354 0.122051 7.9448 -90.1726 10.9844 0.163049 -0.359035 -0.686566 0.147104 -0.365871 -23.2215 0.263416 -0.293432 -3.20887 0.263413 -0.293439 88.6087 -32.1025 -108.645 40.5694 -7.10676 0.26862 1.48984 -26.735 -15.4323 -22.5273 -0.543619 -9.77703 -90.4509 -55.449 79.2039 -17.8305 6.6274 -12.8385 9.58849 11.9639 -28.3607 6.32567 -0.725186 -12.7005 10.1007 0.741005 2.24125 -3.71613 0.210527 0.374524 
-150.054 101.108 -138.331 -99.6342 44.6364 -82.6191 -171.87 -2.21151 93.9077 -16.2741 11.0225 0.0305257 68.1163 6.4089 -0.203704 26.3493 -1.59925 1.17608 172.808 -1.87592 85.5057 -17.1084 -15.2957 -2.48547 66.504 -3.80591 -0.596622 26.4056 -0.146999 6.40548 0.198619 7.95715 -90.1898 10.96 0.30758 -0.40686 -0.710962 0.289363 -0.42 -23.2461 0.415624 -0.295613 -3.23346 0.415625 -0.29562 88.7173 -31.784 -108.564 40.8138 -7.28019 -0.318109 0.487948 -27.1711 -16.3661 -23.868 -0.658619 -9.03977 -90.5419 -55.1708 79.0194 -18.5649 6.52417 -12.0453 9.96171 14.5658 -26.8179 5.35296 -0.642397 -12.5298 10.2936 1.0904 2.47439 -4.09383 0.494479 0.324995 
-150.262 101.074 -138.372 -99.6208 45.5447 -82.6077 -171.899 -2.42925 93.6835 -16.1556 10.1795 -0.0455924 68.274 6.57069 -0.0178926 26.6377 -1.5223 1.49659 172.846 -1.76287 85.3766 -17.0654 -16.2884 -2.66987 66.5628 -3.88669 -0.677749 26.5022 -0.166695 6.35389 0.237279 7.93833 -90.164 10.9978 0.396486 -0.364179 -0.673174 0.380068 -0.381288 -23.2086 0.487585 -0.228189 -3.19598 0.487595 -0.228189 88.5545 -32.1843 -108.715 40.1653 -7.92339 -0.799379 0.325622 -25.7024 -17.3829 -24.3723 -0.386889 -10.0516 -90.7338 -55.1209 78.7383 -19.1445 7.17275 -10.5324 8.11017 14.5617 -23.2225 4.92805 -0.578129 -12.0256 9.82082 1.24706 2.56921 -3.62722 0.639717 0.206624 
